<svg width="12" height="12" viewBox="0 0 12 12" fill="none" xmlns="http://www.w3.org/2000/svg">
<path d="M0.458331 3.08333C0.458331 4.372 1.503 5.41667 2.79166 5.41667C4.08033 5.41667 5.125 4.372 5.125 3.08333C5.125 1.79467 4.08033 0.75 2.79166 0.75C1.503 0.75 0.458331 1.79467 0.458331 3.08333ZM0.166664 11.25V8.625C0.166664 7.17524 1.34192 6 2.79166 6C4.24141 6 5.41666 7.17524 5.41666 8.625V11.25H0.166664ZM9.20833 5.41667C7.91969 5.41667 6.875 4.372 6.875 3.08333C6.875 1.79467 7.91969 0.75 9.20833 0.75C10.497 0.75 11.5417 1.79467 11.5417 3.08333C11.5417 4.372 10.497 5.41667 9.20833 5.41667ZM6.58333 11.25V8.625C6.58333 7.17524 7.75857 6 9.20833 6C10.6581 6 11.8333 7.17524 11.8333 8.625V11.25H6.58333Z" fill="#AEB9E1"/>
</svg>
