<svg width="12" height="12" viewBox="0 0 12 12" fill="none" xmlns="http://www.w3.org/2000/svg">
<path d="M4.62161 4.85962L3.92306 7.18909C3.86374 7.38721 3.91794 7.60217 4.06424 7.74829C4.17117 7.85522 4.31491 7.91308 4.46194 7.91308C4.51596 7.91308 4.57034 7.90539 4.62344 7.88928L6.95309 7.19092C7.04226 7.16418 7.12356 7.11584 7.18929 7.04992L11.4604 2.77881C11.5659 2.67334 11.6252 2.53015 11.6252 2.38111C11.6252 2.23206 11.5659 2.08887 11.4604 1.9834L9.82913 0.352296C9.6094 0.132568 9.25344 0.132568 9.03372 0.352296L4.76278 4.62341C4.69686 4.68933 4.64853 4.77026 4.62161 4.85962ZM5.65854 5.31848L9.43142 1.54541L10.2671 2.38111L6.49423 6.15418L5.30074 6.51196L5.65854 5.31848Z" fill="#9B9DA6"/>
<path d="M11.0625 5.4375C10.7518 5.4375 10.5 5.68946 10.5 6V9.75C10.5 10.2671 10.0794 10.6875 9.5625 10.6875H2.0625C1.54559 10.6875 1.125 10.2671 1.125 9.75V2.25C1.125 1.73291 1.54559 1.3125 2.0625 1.3125H5.8125C6.12323 1.3125 6.375 1.06054 6.375 0.75C6.375 0.439455 6.12323 0.1875 5.8125 0.1875H2.0625C0.925234 0.1875 0 1.11291 0 2.25V9.75C0 10.8871 0.925234 11.8125 2.0625 11.8125H9.5625C10.6998 11.8125 11.625 10.8871 11.625 9.75V6C11.625 5.68946 11.3732 5.4375 11.0625 5.4375Z" fill="#9B9DA6"/>
</svg>
