<svg width="13" height="20" viewBox="0 0 13 20" fill="none" xmlns="http://www.w3.org/2000/svg">
<path d="M6.24023 0.562988C7.15416 0.563051 8.03344 0.928111 8.70898 1.5835L8.8418 1.71826C9.53265 2.45854 9.92188 3.46362 9.92188 4.51221V9.86084L9.91699 10.0562C9.874 10.9679 9.53787 11.8355 8.9668 12.5112L8.84082 12.6528C8.1503 13.3927 7.21478 13.8079 6.24023 13.8091L6.05762 13.8042C5.20972 13.7582 4.40182 13.3994 3.77148 12.7876L3.63965 12.6528C2.94904 11.9129 2.55971 10.909 2.55859 9.86084V4.51221C2.55859 3.52899 2.90054 2.58412 3.5127 1.85986L3.63867 1.71826C4.32947 0.97817 5.26532 0.562988 6.24023 0.562988ZM6.24023 1.7749C5.64536 1.7749 5.07226 1.99663 4.61719 2.396L4.42969 2.57861C3.95041 3.09214 3.68164 3.78772 3.68164 4.51221V9.86084C3.68172 10.4947 3.88733 11.1063 4.25977 11.5933L4.42969 11.7944C4.90909 12.3079 5.56037 12.5972 6.24023 12.5972C6.83522 12.5971 7.4082 12.3756 7.86328 11.9761L8.05078 11.7944C8.52999 11.281 8.79874 10.5852 8.79883 9.86084V4.51221C8.79883 3.87826 8.5932 3.26588 8.2207 2.77881L8.05078 2.57861C7.57141 2.065 6.92015 1.77497 6.24023 1.7749ZM5.67871 16.4565L5.62305 16.4507C4.19638 16.2951 2.86657 15.6133 1.85938 14.5259L1.66211 14.3032C0.634673 13.0862 0.0644814 11.5033 0.0625 9.86084L0.0732422 9.74072C0.0951233 9.62356 0.149164 9.5152 0.228516 9.43018C0.33419 9.31703 0.476611 9.25439 0.624023 9.25439C0.734515 9.2544 0.842112 9.28969 0.933594 9.35498L1.01953 9.43018C1.12535 9.54356 1.18555 9.69876 1.18555 9.86084C1.18563 11.2944 1.71689 12.6701 2.66406 13.6851C3.61158 14.7003 4.89825 15.272 6.24023 15.272C7.49813 15.2719 8.70695 14.7696 9.63379 13.8706L9.81543 13.6851C10.7627 12.6701 11.2948 11.2945 11.2949 9.86084C11.2949 9.69876 11.3551 9.54356 11.4609 9.43018C11.5666 9.31716 11.7091 9.25439 11.8564 9.25439C12.0038 9.25452 12.1464 9.31705 12.252 9.43018C12.3577 9.54355 12.418 9.69881 12.418 9.86084L12.4102 10.1675C12.3467 11.5973 11.8537 12.9668 11.0049 14.0708L10.8174 14.3032C9.79001 15.52 8.37902 16.2847 6.85742 16.4507L6.80176 16.4565V18.5522C6.80168 18.7141 6.74141 18.8686 6.63574 18.9819C6.53011 19.0951 6.38762 19.1576 6.24023 19.1577C6.12949 19.1577 6.02131 19.1227 5.92969 19.0571L5.84473 18.9819C5.73898 18.8686 5.67879 18.7142 5.67871 18.5522V16.4565Z" fill="white" stroke="white" stroke-width="0.125"/>
</svg>
